<?xml version="1.0" encoding="utf-8"?>
<!-- Generator: Adobe Illustrator 22.1.0, SVG Export Plug-In . SVG Version: 6.00 Build 0)  -->
<svg version="1.1" id="Layer_1" xmlns="http://www.w3.org/2000/svg" xmlns:xlink="http://www.w3.org/1999/xlink" x="0px" y="0px"
	 viewBox="0 0 198.4 299" style="enable-background:new 0 0 198.4 299;" xml:space="preserve">
<style type="text/css">
	.st0{display:none;}
	.st1{display:inline;fill:#FFFFFF;stroke:#231F20;stroke-width:3;stroke-linecap:round;stroke-miterlimit:10;}
	.st2{display:inline;fill:none;stroke:#231F20;stroke-width:3;stroke-linecap:round;stroke-miterlimit:10;}
	.st3{display:inline;opacity:0.45;fill:#231F20;enable-background:new    ;}
	.st4{display:inline;}
	.st5{fill:#FFFFFF;stroke:#231F20;stroke-width:3;stroke-linecap:round;stroke-miterlimit:10;}
	.st6{opacity:0.45;fill:#231F20;enable-background:new    ;}
	.st7{display:inline;fill:#231F20;}
	.st8{display:inline;fill:#FFFFFF;stroke:#231F20;stroke-width:1.4996;stroke-linecap:round;stroke-miterlimit:10;}
	.st9{fill:#FFFF00;stroke:#231F20;stroke-width:3;stroke-linecap:round;stroke-miterlimit:10;}
	.st10{display:inline;fill:none;stroke:#231F20;stroke-width:1.5;stroke-linecap:round;stroke-miterlimit:10;}
	.st11{display:inline;opacity:0.7;fill:#231F20;enable-background:new    ;}
	.st12{opacity:0.7;fill:#231F20;enable-background:new    ;}
	.st13{display:inline;fill:none;stroke:#231F20;stroke-width:1.5;stroke-miterlimit:10;}
	.st14{fill:#00BB00;stroke:#231F20;stroke-width:3;stroke-linecap:round;stroke-miterlimit:10;}
	.st15{fill:none;stroke:#231F20;stroke-width:3;stroke-linecap:round;stroke-miterlimit:10;}
	.st16{fill:#FFFFFF;stroke:#231F20;stroke-width:1.4996;stroke-linecap:round;stroke-miterlimit:10;}
	.st17{fill:#231F20;}
	.st18{fill:#27EA00;stroke:#231F20;stroke-width:3;stroke-linecap:round;stroke-miterlimit:10;}
	.st19{fill:none;stroke:#231F20;stroke-width:1.5;stroke-miterlimit:10;}
	.st20{fill:#B5E61D;stroke:#231F20;stroke-width:3;stroke-linecap:round;stroke-miterlimit:10;}
	.st21{fill:#FFA600;stroke:#231F20;stroke-width:3;stroke-linecap:round;stroke-miterlimit:10;}
	.st22{display:inline;fill:none;stroke:#231F20;stroke-width:1.4996;stroke-linecap:round;stroke-miterlimit:10;}
	.st23{fill:#FF6A00;stroke:#231F20;stroke-width:3;stroke-linecap:round;stroke-miterlimit:10;}
	.st24{fill:#FF0000;stroke:#231F20;stroke-width:3;stroke-linecap:round;stroke-miterlimit:10;}
	.st25{fill:#A50000;stroke:#231F20;stroke-width:3;stroke-linecap:round;stroke-miterlimit:10;}
</style>
<g id="Layer_6" class="st0">
	<path class="st1" d="M56,188.1c7.8-0.1-2.1-24.3-11.9-19c-7,3.8-5.6,22.3-1.6,29c5.1,8.7,12.2,3.3,13.7-1.2
		c2.4-7.6-4.8-17.3-4.8-17.3"/>
	<path class="st1" d="M142,186.5c-7.8-0.3,2.8-24.2,12.4-18.6c6.9,4,5,22.4,0.8,29.1c-5.4,8.5-12.3,3-13.6-1.6
		c-2.2-7.6,5.3-17.2,5.3-17.2"/>
	<path class="st2" d="M90.7,110.4C62.2,116.2,47,161.2,47,172.1"/>
	<path class="st2" d="M107.8,110.9c27.3,6.1,44.1,50.3,44.1,61.2"/>
	<path class="st3" d="M154.7,196.5c3.8-6.8,6.1-25-0.8-29.1c-1.9-1.1,1.5,0.9-0.4,1.7c1.5,7.2-0.3,17.5-3.2,22.2
		c-1.3,2.1-4.8,4.8-6.2,5.4c0.1,0.5,0.2,1,0.3,1.5C145.7,202.8,151.6,202,154.7,196.5z"/>
	<g class="st4">
		<path class="st5" d="M131.2,158.6c0,20.9-10.9,31.9-32,31.1C78,188.8,68,179.4,67.6,158.8s9.4-50.3,31.5-49.5
			C121.2,110.1,131.2,137.7,131.2,158.6z"/>
		<path class="st6" d="M99.2,108c-2.5-0.7-4,0.5-6.1,0.6c19.3,6.2,26.2,31.2,26.1,50.5c-0.1,19.2-9.2,24.9-26.1,30
			c2.1,0.3,3.7,0.7,6.1,0.7c21.2-0.3,31.9-9,32-31.5C131.3,135.9,120.9,113.8,99.2,108z"/>
	</g>
	<path class="st1" d="M130.2,243c-5.7-3.6-11.4-6.9-17.8-5.1c-6.4,1.9-9.9,11.7-6.4,14s11.4,9.7,14.2,14s18.5,9,23.9,3.6
		C149.4,264.3,145.3,252.6,130.2,243z"/>
	<path class="st2" d="M107.8,184.5c10.5,19,5.8,57.3,5.8,57.3"/>
	<path class="st1" d="M69.5,243c5.7-3.6,11.4-6.9,17.8-5.1c6.4,1.9,9.9,11.7,6.4,14s-11.4,9.7-14.2,14c-2.8,4.4-18.5,9-23.9,3.6
		S54.4,252.6,69.5,243z"/>
	<path class="st3" d="M86.7,238c-3.6-1,1.4-1.7-1.8-0.4c4.6,3.5,4.6,7.9,2.1,12.1c-1.9,3.2-10.7,12.4-17.8,16
		c-2.1,1.1-10.2,2.7-15.1,1.1c5.9,9.6,22.5,3.1,24.9-0.8c2.8-4.4,10.7-11.7,14.2-14C96.6,249.7,93.1,239.8,86.7,238z"/>
	<path class="st3" d="M129.4,243c-5.7-3.6-11.4-6.9-17.8-5.1c-0.7,0.2,2-0.7,1.4-0.3c2.6,1.1,5.2,2.6,7.7,4.2
		c15.1,9.6,25.4,23.8,10.5,27.8c-0.9,0.2-1.4,1.1-2.3,1.5c5.4,1.4,11.4,1.5,14.4-1.5C148.7,264.3,144.6,252.6,129.4,243z"/>
	<path class="st2" d="M91,184.5c-10.5,19-7.9,57.3-7.9,57.3"/>
	<path class="st3" d="M50,179.9c1.1,1.8,8.7,17.5-4.6,20.7c16.7,6.5,9-11.8,11.3-13.2c3.9-2.3,0.3-18.3-11.6-18.3
		C50,171.4,53,177.5,50,179.9z"/>
	<path class="st1" d="M151.5,84l-5.1-1c-4.1-10.7-21.3-21.4-43.2-25.9s-42-1.3-49.9,7L48.1,63c-4.1-0.8-8.1,1.5-8.8,5.2
		c-0.7,3.7,2,7.4,6.1,8.2l5.2,1.1c4.1,10.7,21.3,21.4,43.2,25.9c22,4.5,42,1.3,49.9-7l5.1,1c4.1,0.8,8.1-1.5,8.8-5.2
		C158.4,88.5,155.6,84.9,151.5,84z"/>
	<path class="st7" d="M112.1,94.3c0.8,0.7,0.3,1.4-0.3,1.3c-10.1-5.8-29.6-6-33.4-5.3c-0.7,0-0.8-1,0.2-1.4
		C85.4,86.6,102.5,86.8,112.1,94.3z"/>
	<path class="st8" d="M129.1,83.3l-0.3,1.5c0,0-4.5,0.2-8.3-0.5c-3.8-0.8-5.1-1.2-7.9-2.7c0,0,0.3-1.4,0.3-1.5
		c1.1-4.4,5.1-6.4,9.6-5.5C126.9,75.4,130,78.8,129.1,83.3z"/>
	<path class="st8" d="M85.9,74.5L85.6,76c0,0-4.5,0.2-8.3-0.5c-3.8-0.8-5.1-1.2-7.9-2.7c0,0,0.3-1.4,0.3-1.5
		c1.1-4.4,5.1-6.4,9.6-5.5S86.8,70,85.9,74.5z"/>
	<path class="st7" d="M116,82.6c0.5-2.6,3-4.2,5.6-3.7s4.2,3,3.7,5.6"/>
	<path class="st7" d="M72.8,73.8c0.5-2.6,3-4.2,5.6-3.7s4.2,3,3.7,5.6"/>
	<path class="st3" d="M152.2,84.2l-5.1-1c-4.1-10.7-21.3-21.4-43.2-25.9c-1.9-0.4-3.8-0.7-5.7-1c19.2,5,33.9,14.8,37.6,24.6
		c2.2,5.1,1.3,9.5-2.7,13.4c-7.3,7.6-24.5,10.9-44.2,8c1.8,0.5,3.7,0.9,5.6,1.3c22,4.5,42,1.3,49.9-7l5.1,1c4.1,0.8,8.1-1.5,8.8-5.2
		C159.1,88.7,156.3,85,152.2,84.2z"/>
	<path class="st2" d="M101.4,60.4c3.3-13.6,26.5-5.2,33.2,2.5"/>
	<path class="st3" d="M46.9,76.7c-2.2-5.1-1.3-9.5,2.7-13.4l5.3,1.1c-4,3.8-4.9,8.3-2.7,13.4L46.9,76.7z"/>
	<line class="st2" x1="99.1" y1="104.3" x2="99.1" y2="112.6"/>
	<g class="st4">
		<circle class="st5" cx="140.6" cy="68.6" r="8.3"/>
		<path class="st6" d="M141.4,60.4c-1.2-0.2-2.4-0.2-3.5,0.1c2.5,1.8,3.9,5,3.2,8.3s-3.2,5.7-6.2,6.4c0.9,0.7,2,1.2,3.2,1.4
			c4.5,0.9,8.8-2,9.7-6.5C148.8,65.6,145.9,61.3,141.4,60.4z"/>
	</g>
</g>
<g id="Layer_4" class="st0">
	<path class="st1" d="M152.1,64.9H147c-6.2-9.7-25.1-16.8-47.5-16.8S58.1,55.2,52,64.9h-5.3c-4.2,0-7.6,3-7.6,6.8s3.4,6.8,7.6,6.8
		H52c6.2,9.7,25.1,16.8,47.5,16.8s41.4-7.1,47.5-16.8h5.2c4.2,0,7.6-3,7.6-6.8C159.8,68,156.4,64.9,152.1,64.9z"/>
	<path class="st7" d="M116.4,84.2c0.6,0.8,0.6,1.6,0,1.7c-11.9-2.6-29.7,1.8-33.9,1.7c-0.7,0.1-0.9-0.7,0-1.8
		C87.8,85.3,103.1,81.9,116.4,84.2z"/>
	<path class="st2" d="M99.2,51.6c0.5-14,13-23.1,23.1-24.8"/>
	<g class="st4">
		<circle class="st9" cx="130.6" cy="26.7" r="8.3"/>
		<path class="st6" d="M129.8,18.5c-1.2,0-2.4,0.3-3.5,0.8c2.8,1.3,4.8,4.2,4.8,7.5s-2,6.2-4.8,7.5c1.1,0.5,2.2,0.8,3.5,0.8
			c4.6,0,8.3-3.7,8.3-8.3C138,22.2,134.3,18.5,129.8,18.5z"/>
	</g>
	<path class="st8" d="M128.8,68.6v1.6c0,0-4.4,1.1-8.3,1.1s-5.2-0.2-8.3-1.1c0,0,0-1.4,0-1.6c0.2-4.6,3.7-8.3,8.3-8.3
		S128.8,64.1,128.8,68.6z"/>
	<path class="st8" d="M84.7,68.6v1.6c0,0-4.4,1.1-8.3,1.1s-5.2-0.2-8.3-1.1c0,0,0-1.4,0-1.6c0.2-4.6,3.7-8.3,8.3-8.3
		C81,60.4,84.7,64.1,84.7,68.6z"/>
	<path class="st7" d="M115.8,70.6c0-2.6,2.1-4.7,4.7-4.7s4.7,2.1,4.7,4.7"/>
	<path class="st7" d="M71.7,70.6c0-2.6,2.1-4.7,4.7-4.7s4.7,2.1,4.7,4.7"/>
	<path class="st3" d="M151.9,64.9h-5.2c-6.2-9.7-25.1-16.8-47.5-16.8c-2,0-3.9,0.1-5.8,0.2c19.9,1.1,36.1,7.8,41.7,16.6
		c3.2,4.5,3.2,9.1,0,13.6c-5.6,8.9-21.9,15.5-41.7,16.6c1.9,0.1,3.8,0.2,5.8,0.2c22.4,0,41.4-7.1,47.5-16.8h5.2c4.2,0,7.6-3,7.6-6.8
		C159.5,68,156.1,64.9,151.9,64.9z"/>
	<path class="st3" d="M48.3,78.5c-3.2-4.5-3.2-9.1,0-13.6h5.4c-3.2,4.5-3.2,9.1,0,13.6H48.3z"/>
	<path class="st1" d="M130.2,243c-5.7-3.6-11.4-6.9-17.8-5.1c-6.4,1.9-9.9,11.7-6.4,14s11.4,9.7,14.2,14s18.5,9,23.9,3.6
		C149.4,264.3,145.3,252.6,130.2,243z"/>
	<path class="st2" d="M107.8,184.5c10.5,19,5.8,57.3,5.8,57.3"/>
	<path class="st1" d="M69.5,243c5.7-3.6,11.4-6.9,17.8-5.1c6.4,1.9,9.9,11.7,6.4,14s-11.4,9.7-14.2,14c-2.8,4.4-18.5,9-23.9,3.6
		S54.4,252.6,69.5,243z"/>
	<path class="st3" d="M86.7,238c-3.6-1,1.4-1.7-1.8-0.4c4.6,3.5,4.6,7.9,2.1,12.1c-1.9,3.2-10.7,12.4-17.8,16
		c-2.1,1.1-10.2,2.7-15.1,1.1c5.9,9.6,22.5,3.1,24.9-0.8c2.8-4.4,10.7-11.7,14.2-14C96.6,249.7,93.1,239.8,86.7,238z"/>
	<path class="st3" d="M129.4,243c-5.7-3.6-11.4-6.9-17.8-5.1c-0.7,0.2,2-0.7,1.4-0.3c2.6,1.1,5.2,2.6,7.7,4.2
		c15.1,9.6,25.4,23.8,10.5,27.8c-0.9,0.2-1.4,1.1-2.3,1.5c5.4,1.4,11.4,1.5,14.4-1.5C148.7,264.3,144.6,252.6,129.4,243z"/>
	<path class="st2" d="M91,184.5c-10.5,19-7.9,57.3-7.9,57.3"/>
	<g class="st4">
		<ellipse class="st5" cx="98.9" cy="149.8" rx="32.3" ry="40.1"/>
		<path class="st6" d="M98.9,109.7c-2.1,0-4.1,0.3-6,0.7c14.9,3.5,26.2,19.8,26.2,39.4s-11.3,35.9-26.2,39.4c2,0.5,4,0.7,6,0.7
			c17.8,0,32.3-18,32.3-40.1S116.8,109.7,98.9,109.7z"/>
	</g>
	<path class="st2" d="M90.7,111c-28.5,5.8-54.5,48.8-14.3,61.2"/>
	<path class="st2" d="M107.8,111.2c27.3,6.1,56.5,43.1,13.2,57.2"/>
	<g class="st4">
		<path class="st5" d="M96,172.8c4.1-6.6-21.5-11.5-22.4-0.4c-0.6,8,15.6,16.9,23.4,17.2c10,0.4,9.4-8.4,6.4-12.2
			c-5-6.2-17.2-5.4-17.2-5.4"/>
	</g>
	<path class="st3" d="M104.1,176.9c-2.3-2.8-6.1-4.2-9.5-4.8l2,0.1c2.8-4.5-8.2-8.2-15.8-6.6c5.3,1,9.5,3.6,7.6,6.6l-2-0.1
		c3.4,0.7,7.2,2,9.5,4.8c2.5,3,3.3,9.5-1.9,11.5c1.3,0.3,2.6,0.6,3.7,0.6C107.7,189.5,107.1,180.6,104.1,176.9z"/>
	<g class="st4">
		<path class="st5" d="M103.6,172c-4.7-6.2,20.4-13.3,22.3-2.3c1.3,7.9-14.1,18.2-21.8,19.2c-10,1.3-10.2-7.5-7.5-11.5
			c4.4-6.6,16.6-6.9,16.6-6.9"/>
		<path class="st6" d="M104,188.2c7.7-1.4,23.1-11.3,21.8-19.2c-0.4-2.2,0.3,1.7-1.5,0.8c-4.6,5.8-13.7,11-19.1,11.7
			c-2.5,0.3-6.8-0.6-8.2-1.3c-0.4,0.4-0.7,0.8-1,1.2C93.4,185.4,97.9,189.3,104,188.2z"/>
	</g>
	<line class="st2" x1="98.9" y1="95.4" x2="98.9" y2="112.8"/>
</g>
<g id="_x34_04" class="st0">
	<path class="st1" d="M56,188.1c7.8-0.1-2.1-24.3-11.9-19c-7,3.8-5.6,22.3-1.6,29c5.1,8.7,12.2,3.3,13.7-1.2
		c2.4-7.6-4.8-17.3-4.8-17.3"/>
	<path class="st1" d="M142,186.5c-7.8-0.3,2.8-24.2,12.4-18.6c6.9,4,5,22.4,0.8,29.1c-5.4,8.5-12.3,3-13.6-1.6
		c-2.2-7.6,5.3-17.2,5.3-17.2"/>
	<path class="st2" d="M90.7,110.4C62.2,116.2,47,161.2,47,172.1"/>
	<path class="st2" d="M107.8,110.9c27.3,6.1,44.1,50.3,44.1,61.2"/>
	<path class="st3" d="M154.7,196.5c3.8-6.8,6.1-25-0.8-29.1c-1.9-1.1,1.5,0.9-0.4,1.7c1.5,7.2-0.3,17.5-3.2,22.2
		c-1.3,2.1-4.8,4.8-6.2,5.4c0.1,0.5,0.2,1,0.3,1.5C145.7,202.8,151.6,202,154.7,196.5z"/>
	<g class="st4">
		<path class="st5" d="M131.2,158.6c0,20.9-10.9,31.9-32,31.1C78,188.8,68,179.4,67.6,158.8s9.4-50.3,31.5-49.5
			C121.2,110.1,131.2,137.7,131.2,158.6z"/>
		<path class="st6" d="M99.2,108c-2.5-0.7-4,0.5-6.1,0.6c19.3,6.2,26.2,31.2,26.1,50.5c-0.1,19.2-9.2,24.9-26.1,30
			c2.1,0.3,3.7,0.7,6.1,0.7c21.2-0.3,31.9-9,32-31.5C131.3,135.9,120.9,113.8,99.2,108z"/>
	</g>
	<line class="st2" x1="99.1" y1="99.1" x2="99.1" y2="112.6"/>
	<path class="st1" d="M130.2,243c-5.7-3.6-11.4-6.9-17.8-5.1c-6.4,1.9-9.9,11.7-6.4,14s11.4,9.7,14.2,14s18.5,9,23.9,3.6
		C149.4,264.3,145.3,252.6,130.2,243z"/>
	<path class="st2" d="M107.8,184.5c10.5,19,5.8,57.3,5.8,57.3"/>
	<path class="st1" d="M69.5,243c5.7-3.6,11.4-6.9,17.8-5.1c6.4,1.9,9.9,11.7,6.4,14s-11.4,9.7-14.2,14c-2.8,4.4-18.5,9-23.9,3.6
		S54.4,252.6,69.5,243z"/>
	<path class="st3" d="M86.7,238c-3.6-1,1.4-1.7-1.8-0.4c4.6,3.5,4.6,7.9,2.1,12.1c-1.9,3.2-10.7,12.4-17.8,16
		c-2.1,1.1-10.2,2.7-15.1,1.1c5.9,9.6,22.5,3.1,24.9-0.8c2.8-4.4,10.7-11.7,14.2-14C96.6,249.7,93.1,239.8,86.7,238z"/>
	<path class="st3" d="M129.4,243c-5.7-3.6-11.4-6.9-17.8-5.1c-0.7,0.2,2-0.7,1.4-0.3c2.6,1.1,5.2,2.6,7.7,4.2
		c15.1,9.6,25.4,23.8,10.5,27.8c-0.9,0.2-1.4,1.1-2.3,1.5c5.4,1.4,11.4,1.5,14.4-1.5C148.7,264.3,144.6,252.6,129.4,243z"/>
	<path class="st2" d="M91,184.5c-10.5,19-7.9,57.3-7.9,57.3"/>
	<path class="st3" d="M50,179.9c1.1,1.8,8.7,17.5-4.6,20.7c16.7,6.5,9-11.8,11.3-13.2c3.9-2.3,0.3-18.3-11.6-18.3
		C50,171.4,53,177.5,50,179.9z"/>
	<path class="st1" d="M151.8,67.5h-5.2c-6.2-9.7-25.1-16.8-47.5-16.8s-41.4,7.1-47.5,16.8h-5.3c-4.2,0-7.6,3-7.6,6.8
		s3.4,6.8,7.6,6.8h5.3c6.2,9.7,25.1,16.8,47.5,16.8s41.4-7.1,47.5-16.8h5.2c4.2,0,7.6-3,7.6-6.8C159.4,70.5,156,67.5,151.8,67.5z"/>
	<path class="st2" d="M98,54.3c0.1-2.4,2.6-3.2,2.8-5.3c0.2-1.8-6.1-3.9-5.9-5.5c0.3-3.9,11.8-5.1,11.8-8.9c0-2.1-5.9-1.5-4.5-3.1"
		/>
	<path class="st3" d="M152.5,67.5h-5.2c-6.2-9.7-25.1-16.8-47.5-16.8c-2,0-3.9,0.1-5.8,0.2c19.9,1.1,36.1,7.8,41.7,16.6
		c3.2,4.5,3.2,9.1,0,13.6C130.1,90,113.8,96.6,94,97.7c1.9,0.1,3.8,0.2,5.8,0.2c22.4,0,41.4-7.1,47.5-16.8h5.2c4.2,0,7.6-3,7.6-6.8
		C160.2,70.5,156.7,67.5,152.5,67.5z"/>
	<path class="st3" d="M47.9,81.1c-3.2-4.5-3.2-9.1,0-13.6h5.4c-3.2,4.5-3.2,9.1,0,13.6H47.9z"/>
	<g class="st4">
		<circle class="st5" cx="102.2" cy="23.3" r="8.3"/>
		<path class="st6" d="M101.4,15c-1.2,0-2.4,0.3-3.5,0.8c2.8,1.3,4.8,4.2,4.8,7.5s-2,6.2-4.8,7.5c1.1,0.5,2.2,0.8,3.5,0.8
			c4.6,0,8.3-3.7,8.3-8.3C109.6,18.7,105.9,15,101.4,15z"/>
	</g>
	<circle class="st10" cx="77.1" cy="71.2" r="8.3"/>
	<circle class="st10" cx="121.2" cy="71.2" r="8.3"/>
	<circle class="st7" cx="79.7" cy="72.2" r="2.1"/>
	<circle class="st7" cx="117.9" cy="71.2" r="2.1"/>
</g>
<g id="Bred" class="st0">
	<ellipse class="st11" cx="102.3" cy="265" rx="93.5" ry="33.2"/>
</g>
<g id="Smal">
	<ellipse class="st12" cx="99.4" cy="265" rx="60.2" ry="33.2"/>
</g>
<g id="_x31_" class="st0">
	<g class="st4">
		<path class="st5" d="M130.7,141.3c-0.4,19.4-9.2,47.4-31.1,48.2s-33.1-28.6-32.5-48.6s11.9-30,32.6-30.7
			C120.5,109.4,131.1,121.9,130.7,141.3z"/>
		<path class="st6" d="M99.8,109.4c-2.4,0-4,0.4-6.1,0.6c16.2,7.3,25.1,10.4,25,30s-6.7,40.9-25,49.4c2.1,0.1,3.7,1.4,6.2,0.7
			c21.1-5.7,30.7-28.4,30.9-49.3S120.6,109.7,99.8,109.4z"/>
	</g>
	<path class="st1" d="M130.2,243c-5.7-3.6-11.4-6.9-17.8-5.1c-6.4,1.9-9.9,11.7-6.4,14s11.4,9.7,14.2,14s18.5,9,23.9,3.6
		C149.4,264.3,145.3,252.6,130.2,243z"/>
	<path class="st2" d="M107.8,184.5c10.5,19,5.8,57.3,5.8,57.3"/>
	<path class="st1" d="M69.5,243c5.7-3.6,11.4-6.9,17.8-5.1c6.4,1.9,9.9,11.7,6.4,14s-11.4,9.7-14.2,14c-2.8,4.4-18.5,9-23.9,3.6
		S54.4,252.6,69.5,243z"/>
	<path class="st3" d="M86.7,238c-3.6-1,1.4-1.7-1.8-0.4c4.6,3.5,4.6,7.9,2.1,12.1c-1.9,3.2-10.7,12.4-17.8,16
		c-2.1,1.1-10.2,2.7-15.1,1.1c5.9,9.6,22.5,3.1,24.9-0.8c2.8-4.4,10.7-11.7,14.2-14C96.6,249.7,93.1,239.8,86.7,238z"/>
	<path class="st3" d="M129.4,243c-5.7-3.6-11.4-6.9-17.8-5.1c-0.7,0.2,2-0.7,1.4-0.3c2.6,1.1,5.2,2.6,7.7,4.2
		c15.1,9.6,25.4,23.8,10.5,27.8c-0.9,0.2-1.4,1.1-2.3,1.5c5.4,1.4,11.4,1.5,14.4-1.5C148.7,264.3,144.6,252.6,129.4,243z"/>
	<path class="st2" d="M91,184.5c-10.5,19-7.9,57.3-7.9,57.3"/>
	<path class="st2" d="M90.7,111.2c-66,6.5-61.8-36.4-64.1-47.2"/>
	<path class="st2" d="M107.8,110.5c43.8,3.6,48,38.1,28.2,52.9"/>
	<g class="st4">
		<path class="st5" d="M30.2,48c7.3-2.5,6.3,23.6-4.7,21.9c-7.9-1.2-12.9-19-11.4-26.7c1.9-9.9,10.3-7.3,13.3-3.5
			c4.9,6.3,1.3,18,1.3,18"/>
	</g>
	<path class="st3" d="M30.6,47.5l-0.3,2C30.4,46,30,42,27.7,39.1c-2.2-2.8-7.5-5-10.8-1.8c2,0.5,11.6,6.1,10.3,20.5l1.8-0.1
		c1.1,2.4,2.1,6-4,11.4c0.2,0.1,0.5,0.1,0.7,0.2C36.9,71,37.9,44.9,30.6,47.5z"/>
	<g class="st4">
		<path class="st5" d="M119.9,169.4c-6.1-4.8,16.4-18.1,20.9-7.9c3.3,7.3-9,21.2-16.2,24.1c-9.3,3.8-11.7-4.7-10.2-9.3
			c2.6-7.5,14.3-10.9,14.3-10.9"/>
		<path class="st6" d="M124.4,185c7.1-3.3,19.5-16.8,16.2-24.1c-0.9-2,0.7,1.6-1.3,1.2c-3,6.7-10.4,14.1-15.5,16.2
			c-2.3,1-6.7,1.2-8.2,0.8c-0.2,0.5-0.5,0.9-0.6,1.4C113.5,185,118.8,187.6,124.4,185z"/>
	</g>
	<path class="st1" d="M156.9,74.2l-5.1-1c-4.2-10.7-21.5-21.2-43.6-25.3s-42-0.8-49.8,7.6l-5.2-1c-4.1-0.8-8.1,1.6-8.8,5.3
		s2.1,7.3,6.2,8.1l5.2,1C60.1,79.5,77.4,90,99.4,94.2s42,0.8,49.8-7.6l5.1,1c4.1,0.8,8.1-1.6,8.8-5.3C163.8,78.6,161,75,156.9,74.2z
		"/>
	<path class="st13" d="M84.8,75.6c-0.4-0.6,0-1.4,0.3-1c9.1,8.3,28.7,9.8,32.9,8c0.5-0.1,0.6,0.5,0,1
		C109.8,91.7,92.1,91.5,84.8,75.6z"/>
	<path class="st8" d="M134.7,76l-0.3,1.5c0,0-4.5,0.3-8.3-0.4c-3.9-0.7-5.1-1.2-7.9-2.7c0,0,0.3-1.4,0.3-1.5c1-4.5,5.2-7.4,9.7-6.6
		C132.7,67.1,135.6,71.5,134.7,76z"/>
	<path class="st8" d="M91.4,67.7l-0.3,1.5c0,0-4.5,0.3-8.3-0.4c-3.9-0.7-5.1-1.2-7.9-2.7c0,0,0.3-1.4,0.3-1.5c1-4.5,5.2-7.4,9.7-6.6
		C89.3,58.9,92.3,63.2,91.4,67.7z"/>
	<path class="st7" d="M121.6,75.4c0.5-2.6,3-4.2,5.5-3.7c2.5,0.5,4.2,3,3.7,5.5"/>
	<path class="st7" d="M78.3,67.2c0.5-2.6,3-4.2,5.5-3.7c2.5,0.5,4.2,3,3.7,5.5"/>
	<path class="st3" d="M156.9,74.1l-5.1-1c-4.2-10.7-21.5-21.2-43.6-25.3c-1.9-0.4-3.8-0.7-5.7-0.9c19.3,4.8,34,14.4,37.9,24.1
		c2.3,5.1,1.4,9.5-2.5,13.4c-7.2,7.7-24.4,11.2-44.1,8.5c1.8,0.5,3.7,0.9,5.6,1.2c22,4.2,42,0.8,49.8-7.6l5.1,1
		c4.1,0.8,8.1-1.6,8.8-5.3C163.8,78.5,161,74.9,156.9,74.1z"/>
	<g class="st4">
		<circle class="st14" cx="127.4" cy="17.5" r="8.3"/>
		<path class="st6" d="M128.2,9.2C127,9,125.8,9,124.7,9.3c2.5,1.8,3.9,5,3.3,8.3c-0.6,3.3-3.1,5.7-6.1,6.5c0.9,0.7,2,1.2,3.2,1.4
			c4.5,0.9,8.8-2.1,9.7-6.6C135.6,14.4,132.7,10.1,128.2,9.2z"/>
	</g>
	<path class="st2" d="M106.4,51.1c3.1-13.7,7.2-21.6,14-27.1"/>
	<line class="st2" x1="99.2" y1="95.4" x2="99.2" y2="112.8"/>
	<path class="st3" d="M52.3,68.2c-2.3-5.1-1.4-9.5,2.5-13.4l5.3,1c-4,3.9-4.8,8.3-2.5,13.4L52.3,68.2z"/>
</g>
<g id="_x32_">
	<path class="st15" d="M90.7,111.2c-28.5,5.8-52,50.4-54.3,61.2"/>
	<path class="st15" d="M107.8,110.6c28.9,2.4,49.2,51,51.5,61.8"/>
	<g>
		<path class="st5" d="M42.5,188.9c7.6,1.7,3.7-24.1-7.1-21.2c-7.7,2.1-10.7,20.3-8.5,27.8c2.9,9.6,11.1,6.1,13.6,2
			c4.2-6.8-0.6-18-0.6-18"/>
	</g>
	<g>
		<path class="st5" d="M152.2,189.3c-7.5,2.1-4.7-23.9,6.2-21.5c7.8,1.7,11.6,19.9,9.6,27.4c-2.5,9.7-10.8,6.6-13.5,2.6
			c-4.5-6.6-0.2-18-0.2-18"/>
		<path class="st6" d="M167.3,195c1.6-7.7-1.8-25.7-9.6-27.4c-2.2-0.5,1.7,0.4,0.2,1.7c3.6,6.4,5.9,17.7,4.5,23
			c-0.6,2.4-2.1,4.9-5.1,6.1c0.2,0.5,0.5,0.9,0.8,1.4C160.8,203.7,166.1,201.1,167.3,195z"/>
	</g>
	<g>
		<path class="st5" d="M130.7,141.3c-0.4,19.4-9.2,47.4-31.1,48.2s-33.1-28.6-32.5-48.6s11.9-30,32.6-30.7
			C120.5,109.4,131.1,121.9,130.7,141.3z"/>
		<path class="st6" d="M99.8,109.4c-2.4,0-4,0.4-6.1,0.6c16.2,7.3,25.1,10.4,25,30s-6.7,40.9-25,49.4c2.1,0.1,3.7,1.4,6.2,0.7
			c21.1-5.7,30.7-28.4,30.9-49.3S120.6,109.7,99.8,109.4z"/>
	</g>
	<path class="st5" d="M152.1,64.9H147c-6.2-9.7-25.1-16.8-47.5-16.8S58.1,55.2,52,64.9h-5.3c-4.2,0-7.6,3-7.6,6.8s3.4,6.8,7.6,6.8
		H52c6.2,9.7,25.1,16.8,47.5,16.8s41.4-7.1,47.5-16.8h5.2c4.2,0,7.6-3,7.6-6.8C159.8,68,156.4,64.9,152.1,64.9z"/>
	<path class="st5" d="M130.2,243c-5.7-3.6-11.4-6.9-17.8-5.1c-6.4,1.9-9.9,11.7-6.4,14s11.4,9.7,14.2,14s18.5,9,23.9,3.6
		C149.4,264.3,145.3,252.6,130.2,243z"/>
	<path class="st15" d="M107.8,184.5c10.5,19,5.8,57.3,5.8,57.3"/>
	<path class="st5" d="M69.5,243c5.7-3.6,11.4-6.9,17.8-5.1c6.4,1.9,9.9,11.7,6.4,14s-11.4,9.7-14.2,14c-2.8,4.4-18.5,9-23.9,3.6
		S54.4,252.6,69.5,243z"/>
	<path class="st6" d="M86.7,238c-3.6-1,1.4-1.7-1.8-0.4c4.6,3.5,4.6,7.9,2.1,12.1c-1.9,3.2-10.7,12.4-17.8,16
		c-2.1,1.1-10.2,2.7-15.1,1.1c5.9,9.6,22.5,3.1,24.9-0.8c2.8-4.4,10.7-11.7,14.2-14C96.6,249.7,93.1,239.8,86.7,238z"/>
	<path class="st6" d="M129.4,243c-5.7-3.6-11.4-6.9-17.8-5.1c-0.7,0.2,2-0.7,1.4-0.3c2.6,1.1,5.2,2.6,7.7,4.2
		c15.1,9.6,25.4,23.8,10.5,27.8c-0.9,0.2-1.4,1.1-2.3,1.5c5.4,1.4,11.4,1.5,14.4-1.5C148.7,264.3,144.6,252.6,129.4,243z"/>
	<path class="st15" d="M91,184.5c-10.5,19-7.9,57.3-7.9,57.3"/>
	<path class="st16" d="M128.8,68.6v1.6c0,0-4.4,1.1-8.3,1.1s-5.2-0.2-8.3-1.1c0,0,0-1.4,0-1.6c0.2-4.6,3.7-8.3,8.3-8.3
		S128.8,64.1,128.8,68.6z"/>
	<path class="st16" d="M84.7,68.6v1.6c0,0-4.4,1.1-8.3,1.1s-5.2-0.2-8.3-1.1c0,0,0-1.4,0-1.6c0.2-4.6,3.7-8.3,8.3-8.3
		C81,60.4,84.7,64.1,84.7,68.6z"/>
	<path class="st17" d="M115.8,70.6c0-2.6,2.1-4.7,4.7-4.7s4.7,2.1,4.7,4.7"/>
	<path class="st17" d="M71.7,70.6c0-2.6,2.1-4.7,4.7-4.7s4.7,2.1,4.7,4.7"/>
	<line class="st15" x1="99.2" y1="51.3" x2="99.2" y2="19.7"/>
	<path class="st6" d="M151.9,64.9h-5.2c-6.2-9.7-25.1-16.8-47.5-16.8c-2,0-3.9,0.1-5.8,0.2c19.9,1.1,36.1,7.8,41.7,16.6
		c3.2,4.5,3.2,9.1,0,13.6c-5.6,8.9-21.9,15.5-41.7,16.6c1.9,0.1,3.8,0.2,5.8,0.2c22.4,0,41.4-7.1,47.5-16.8h5.2c4.2,0,7.6-3,7.6-6.8
		C159.5,68,156.1,64.9,151.9,64.9z"/>
	<path class="st6" d="M48.3,78.5c-3.2-4.5-3.2-9.1,0-13.6h5.4c-3.2,4.5-3.2,9.1,0,13.6H48.3z"/>
	<g>
		<circle class="st18" cx="99.2" cy="10.6" r="8.3"/>
		<path class="st6" d="M99.5,2.3c-1.2,0-2.4,0.3-3.5,0.8c2.8,1.3,4.8,4.2,4.8,7.5s-2,6.2-4.8,7.5c1.1,0.5,2.2,0.8,3.5,0.8
			c4.6,0,8.3-3.7,8.3-8.3S104.1,2.3,99.5,2.3z"/>
	</g>
	<line class="st15" x1="99.2" y1="95.6" x2="99.2" y2="113.1"/>
	<path class="st19" d="M79.9,80.4c-0.5-0.5-0.6-1,0.1-1c10.7,6.2,30.1,3.4,33.9,0.7c0.7,0,0.9,0.5-0.1,1.1
		C107.9,88.6,91,91.4,79.9,80.4z"/>
	<path class="st6" d="M38.8,179.6c0.4,2,2.6,19.4-11,18.1c13.7,11.5,12.3-8.3,14.9-8.8c4.5-0.9,6.1-17.3-5.2-21
		C41.5,171.5,42.4,178.2,38.8,179.6z"/>
</g>
<g id="_x33_" class="st0">
	<path class="st1" d="M152.1,64.9H147c-6.2-9.7-25.1-16.8-47.5-16.8S58.1,55.2,52,64.9h-5.3c-4.2,0-7.6,3-7.6,6.8s3.4,6.8,7.6,6.8
		H52c6.2,9.7,25.1,16.8,47.5,16.8s41.4-7.1,47.5-16.8h5.2c4.2,0,7.6-3,7.6-6.8C159.8,68,156.4,64.9,152.1,64.9z"/>
	<path class="st1" d="M130.2,243c-5.7-3.6-11.4-6.9-17.8-5.1c-6.4,1.9-9.9,11.7-6.4,14s11.4,9.7,14.2,14s18.5,9,23.9,3.6
		C149.4,264.3,145.3,252.6,130.2,243z"/>
	<path class="st2" d="M107.8,184.5c10.5,19,5.8,57.3,5.8,57.3"/>
	<path class="st1" d="M69.5,243c5.7-3.6,11.4-6.9,17.8-5.1c6.4,1.9,9.9,11.7,6.4,14s-11.4,9.7-14.2,14c-2.8,4.4-18.5,9-23.9,3.6
		S54.4,252.6,69.5,243z"/>
	<path class="st3" d="M86.7,238c-3.6-1,1.4-1.7-1.8-0.4c4.6,3.5,4.6,7.9,2.1,12.1c-1.9,3.2-10.7,12.4-17.8,16
		c-2.1,1.1-10.2,2.7-15.1,1.1c5.9,9.6,22.5,3.1,24.9-0.8c2.8-4.4,10.7-11.7,14.2-14C96.6,249.7,93.1,239.8,86.7,238z"/>
	<path class="st3" d="M129.4,243c-5.7-3.6-11.4-6.9-17.8-5.1c-0.7,0.2,2-0.7,1.4-0.3c2.6,1.1,5.2,2.6,7.7,4.2
		c15.1,9.6,25.4,23.8,10.5,27.8c-0.9,0.2-1.4,1.1-2.3,1.5c5.4,1.4,11.4,1.5,14.4-1.5C148.7,264.3,144.6,252.6,129.4,243z"/>
	<path class="st2" d="M91,184.5c-10.5,19-7.9,57.3-7.9,57.3"/>
	<g class="st4">
		<ellipse class="st5" cx="98.9" cy="149.8" rx="32.3" ry="40.1"/>
		<path class="st6" d="M98.9,109.7c-2.1,0-4.1,0.3-6,0.7c14.9,3.5,26.2,19.8,26.2,39.4s-11.3,35.9-26.2,39.4c2,0.5,4,0.7,6,0.7
			c17.8,0,32.3-18,32.3-40.1S116.8,109.7,98.9,109.7z"/>
	</g>
	<path class="st2" d="M90.7,111c-28.5,5.8-54.5,48.8-14.3,61.2"/>
	<path class="st2" d="M107.8,111.2c27.3,6.1,56.5,43.1,13.2,57.2"/>
	<g class="st4">
		<path class="st5" d="M96,172.8c4.1-6.6-21.5-11.5-22.4-0.4c-0.6,8,15.6,16.9,23.4,17.2c10,0.4,9.4-8.4,6.4-12.2
			c-5-6.2-17.2-5.4-17.2-5.4"/>
	</g>
	<path class="st3" d="M104.1,176.9c-2.3-2.8-6.1-4.2-9.5-4.8l2,0.1c2.8-4.5-8.2-8.2-15.8-6.6c5.3,1,9.5,3.6,7.6,6.6l-2-0.1
		c3.4,0.7,7.2,2,9.5,4.8c2.5,3,3.3,9.5-1.9,11.5c1.3,0.3,2.6,0.6,3.7,0.6C107.7,189.5,107.1,180.6,104.1,176.9z"/>
	<g class="st4">
		<path class="st5" d="M103.6,172c-4.7-6.2,20.4-13.3,22.3-2.3c1.3,7.9-14.1,18.2-21.8,19.2c-10,1.3-10.2-7.5-7.5-11.5
			c4.4-6.6,16.6-6.9,16.6-6.9"/>
		<path class="st6" d="M104,188.2c7.7-1.4,23.1-11.3,21.8-19.2c-0.4-2.2,0.3,1.7-1.5,0.8c-4.6,5.8-13.7,11-19.1,11.7
			c-2.5,0.3-6.8-0.6-8.2-1.3c-0.4,0.4-0.7,0.8-1,1.2C93.4,185.4,97.9,189.3,104,188.2z"/>
	</g>
	<path class="st2" d="M99.2,51.6c0.5-14,5.4-24.5,13.6-29.8"/>
	<g class="st4">
		<circle class="st20" cx="118.6" cy="15.8" r="8.3"/>
		<path class="st6" d="M117.8,7.5c-1.2,0-2.4,0.3-3.5,0.8c2.8,1.3,4.8,4.2,4.8,7.5s-2,6.2-4.8,7.5c1.1,0.5,2.2,0.8,3.5,0.8
			c4.6,0,8.3-3.7,8.3-8.3C126,11.2,122.3,7.5,117.8,7.5z"/>
	</g>
	<line class="st2" x1="98.9" y1="95.4" x2="98.9" y2="112.8"/>
	<path class="st8" d="M128.8,68.6v1.6c0,0-4.4,1.1-8.3,1.1s-5.2-0.2-8.3-1.1c0,0,0-1.4,0-1.6c0.2-4.6,3.7-8.3,8.3-8.3
		S128.8,64.1,128.8,68.6z"/>
	<path class="st8" d="M84.7,68.6v1.6c0,0-4.4,1.1-8.3,1.1s-5.2-0.2-8.3-1.1c0,0,0-1.4,0-1.6c0.2-4.6,3.7-8.3,8.3-8.3
		C81,60.4,84.7,64.1,84.7,68.6z"/>
	<path class="st7" d="M115.8,70.6c0-2.6,2.1-4.7,4.7-4.7s4.7,2.1,4.7,4.7"/>
	<path class="st7" d="M71.7,70.6c0-2.6,2.1-4.7,4.7-4.7s4.7,2.1,4.7,4.7"/>
	<path class="st3" d="M151.9,64.9h-5.2c-6.2-9.7-25.1-16.8-47.5-16.8c-2,0-3.9,0.1-5.8,0.2c19.9,1.1,36.1,7.8,41.7,16.6
		c3.2,4.5,3.2,9.1,0,13.6c-5.6,8.9-21.9,15.5-41.7,16.6c1.9,0.1,3.8,0.2,5.8,0.2c22.4,0,41.4-7.1,47.5-16.8h5.2c4.2,0,7.6-3,7.6-6.8
		C159.5,68,156.1,64.9,151.9,64.9z"/>
	<path class="st3" d="M48.3,78.5c-3.2-4.5-3.2-9.1,0-13.6h5.4c-3.2,4.5-3.2,9.1,0,13.6H48.3z"/>
	<path class="st7" d="M82.4,87.1c-0.6-0.8-0.6-1.6,0-1.7c11.9,2.6,29.7-1.8,33.9-1.7c0.7-0.1,0.9,0.7,0,1.8
		C111,86,95.7,89.5,82.4,87.1z"/>
</g>
<g id="_x34_" class="st0">
	<path class="st1" d="M56,188.1c7.8-0.1-2.1-24.3-11.9-19c-7,3.8-5.6,22.3-1.6,29c5.1,8.7,12.2,3.3,13.7-1.2
		c2.4-7.6-4.8-17.3-4.8-17.3"/>
	<path class="st1" d="M142,186.5c-7.8-0.3,2.8-24.2,12.4-18.6c6.9,4,5,22.4,0.8,29.1c-5.4,8.5-12.3,3-13.6-1.6
		c-2.2-7.6,5.3-17.2,5.3-17.2"/>
	<path class="st2" d="M90.7,110.4C62.2,116.2,47,161.2,47,172.1"/>
	<path class="st2" d="M107.8,110.9c27.3,6.1,44.1,50.3,44.1,61.2"/>
	<path class="st3" d="M154.7,196.5c3.8-6.8,6.1-25-0.8-29.1c-1.9-1.1,1.5,0.9-0.4,1.7c1.5,7.2-0.3,17.5-3.2,22.2
		c-1.3,2.1-4.8,4.8-6.2,5.4c0.1,0.5,0.2,1,0.3,1.5C145.7,202.8,151.6,202,154.7,196.5z"/>
	<g class="st4">
		<path class="st5" d="M131.2,158.6c0,20.9-10.9,31.9-32,31.1C78,188.8,68,179.4,67.6,158.8s9.4-50.3,31.5-49.5
			C121.2,110.1,131.2,137.7,131.2,158.6z"/>
		<path class="st6" d="M99.2,108c-2.5-0.7-4,0.5-6.1,0.6c19.3,6.2,26.2,31.2,26.1,50.5c-0.1,19.2-9.2,24.9-26.1,30
			c2.1,0.3,3.7,0.7,6.1,0.7c21.2-0.3,31.9-9,32-31.5C131.3,135.9,120.9,113.8,99.2,108z"/>
	</g>
	<path class="st1" d="M151.8,68.6h-5.2c-6.2-9.7-25.1-16.8-47.5-16.8s-41.4,7.1-47.5,16.8h-5.3c-4.2,0-7.6,3-7.6,6.8
		s3.4,6.8,7.6,6.8h5.3C57.8,91.9,76.7,99,99.1,99s41.4-7.1,47.5-16.8h5.2c4.2,0,7.6-3,7.6-6.8C159.4,71.6,156,68.6,151.8,68.6z"/>
	<path class="st7" d="M115.2,86.5c0.9,0.5,0.6,1.3,0,1.3c-11.1-3.7-30.2,0-33.8,1.5c-0.7,0.1-1-0.8-0.1-1.5
		C87.6,84.2,104.4,81,115.2,86.5z"/>
	<path class="st8" d="M129.7,72.3v1.6c0,0-4.4,1.1-8.3,1.1s-5.2-0.2-8.3-1.1c0,0,0-1.4,0-1.6c0.2-4.6,3.7-7.3,8.3-7.3
		S129.7,67.7,129.7,72.3z"/>
	<path class="st8" d="M85.6,72.3v1.6c0,0-4.4,1.1-8.3,1.1s-5.2-0.2-8.3-1.1c0,0,0-1.4,0-1.6c0.2-4.6,3.7-7.3,8.3-7.3
		S85.6,67.7,85.6,72.3z"/>
	<path class="st7" d="M116.7,74.2c0-2.6,2.1-4.7,4.7-4.7s4.7,2.1,4.7,4.7"/>
	<path class="st7" d="M72.6,74.2c0-2.6,2.1-4.7,4.7-4.7s4.7,2.1,4.7,4.7"/>
	<g class="st4">
		<circle class="st9" cx="138" cy="40.9" r="8.3"/>
		<path class="st6" d="M137.2,32.6c-1.2,0-2.4,0.3-3.5,0.8c2.8,1.3,4.8,4.2,4.8,7.5s-2,6.2-4.8,7.5c1.1,0.5,2.2,0.8,3.5,0.8
			c4.6,0,8.3-3.7,8.3-8.3S141.8,32.6,137.2,32.6z"/>
	</g>
	<path class="st3" d="M152.5,68.6h-5.2c-6.2-9.7-25.1-16.8-47.5-16.8c-2,0-3.9,0.1-5.8,0.2c19.9,1.1,36.1,7.8,41.7,16.6
		c3.2,4.5,3.2,9.1,0,13.6C130.2,91,113.9,97.7,94,98.8c1.9,0.1,3.8,0.2,5.8,0.2c22.4,0,41.4-7.1,47.5-16.8h5.2c4.2,0,7.6-3,7.6-6.8
		C160.2,71.6,156.7,68.6,152.5,68.6z"/>
	<path class="st2" d="M98,55.3c0.5-14,22.6-18.8,31.8-14.4"/>
	<path class="st3" d="M47.8,82.2c-3.2-4.5-3.2-9.1,0-13.6h5.4c-3.2,4.5-3.2,9.1,0,13.6H47.8z"/>
	<line class="st2" x1="99.1" y1="99.1" x2="99.1" y2="112.6"/>
	<path class="st1" d="M130.2,243c-5.7-3.6-11.4-6.9-17.8-5.1c-6.4,1.9-9.9,11.7-6.4,14s11.4,9.7,14.2,14s18.5,9,23.9,3.6
		C149.4,264.3,145.3,252.6,130.2,243z"/>
	<path class="st2" d="M107.8,184.5c10.5,19,5.8,57.3,5.8,57.3"/>
	<path class="st1" d="M69.5,243c5.7-3.6,11.4-6.9,17.8-5.1c6.4,1.9,9.9,11.7,6.4,14s-11.4,9.7-14.2,14c-2.8,4.4-18.5,9-23.9,3.6
		S54.4,252.6,69.5,243z"/>
	<path class="st3" d="M86.7,238c-3.6-1,1.4-1.7-1.8-0.4c4.6,3.5,4.6,7.9,2.1,12.1c-1.9,3.2-10.7,12.4-17.8,16
		c-2.1,1.1-10.2,2.7-15.1,1.1c5.9,9.6,22.5,3.1,24.9-0.8c2.8-4.4,10.7-11.7,14.2-14C96.6,249.7,93.1,239.8,86.7,238z"/>
	<path class="st3" d="M129.4,243c-5.7-3.6-11.4-6.9-17.8-5.1c-0.7,0.2,2-0.7,1.4-0.3c2.6,1.1,5.2,2.6,7.7,4.2
		c15.1,9.6,25.4,23.8,10.5,27.8c-0.9,0.2-1.4,1.1-2.3,1.5c5.4,1.4,11.4,1.5,14.4-1.5C148.7,264.3,144.6,252.6,129.4,243z"/>
	<path class="st2" d="M91,184.5c-10.5,19-7.9,57.3-7.9,57.3"/>
	<path class="st3" d="M50,179.9c1.1,1.8,8.7,17.5-4.6,20.7c16.7,6.5,9-11.8,11.3-13.2c3.9-2.3,0.3-18.3-11.6-18.3
		C50,171.4,53,177.5,50,179.9z"/>
</g>
<g id="_x35_" class="st0">
	<g class="st4">
		<path class="st5" d="M61.7,201.4c7.8-0.1-2.3-24.3-12-18.9c-7,3.9-5.5,22.3-1.5,29c5.2,8.6,12.2,3.3,13.7-1.3
			c2.4-7.6-4.9-17.3-4.9-17.3"/>
	</g>
	<g class="st4">
		<path class="st5" d="M138.1,200.9c-7.7,0.9-1-24.4,9.4-20.3c7.5,2.9,8.4,21.4,5.4,28.6c-3.9,9.2-11.7,4.9-13.7,0.5
			c-3.4-7.2,2.6-17.8,2.6-17.8"/>
		<path class="st6" d="M152.2,208.8c2.7-7.3,2.1-25.7-5.4-28.6c-2.1-0.8,1.6,0.6-0.1,1.7c2.6,6.9,2.4,17.4,0.3,22.4
			c-1,2.3-4,5.5-5.3,6.4c0.1,0.5,0.3,1,0.5,1.5C144.3,216.5,150,214.7,152.2,208.8z"/>
	</g>
	<g class="st4">
		<path class="st5" d="M130.5,161.1c-0.2,21.4-10.4,29.5-31.6,28.8s-30.5-7.3-31.3-28.4s7.8-40.5,31.1-40.4
			C121.9,121.2,130.7,139.7,130.5,161.1z"/>
		<path class="st6" d="M99,119.5c-2.6-0.6-4,0.3-6.2,0.4c19.3,9.4,26,19.9,25.7,41s-8.7,22.4-25.8,28.8c2.2,0,3.7,0.6,6.2,0.5
			c21.7-1,31.1-6.4,31.5-29.5S121,125,99,119.5z"/>
	</g>
	<path class="st2" d="M90,122.3c-26.5,8.4-37.3,51.4-37.3,62.2"/>
	<path class="st2" d="M105.3,121.7c27.3,6.1,39.3,50.9,39.3,61.7"/>
	<path class="st1" d="M130.2,243c-5.7-3.6-11.4-6.9-17.8-5.1c-6.4,1.9-9.9,11.7-6.4,14s11.4,9.7,14.2,14s18.5,9,23.9,3.6
		C149.4,264.3,145.3,252.6,130.2,243z"/>
	<path class="st2" d="M107.8,184.5c10.5,19,5.8,57.3,5.8,57.3"/>
	<path class="st1" d="M69.5,243c5.7-3.6,11.4-6.9,17.8-5.1c6.4,1.9,9.9,11.7,6.4,14s-11.4,9.7-14.2,14c-2.8,4.4-18.5,9-23.9,3.6
		S54.4,252.6,69.5,243z"/>
	<path class="st3" d="M86.7,238c-3.6-1,1.4-1.7-1.8-0.4c4.6,3.5,4.6,7.9,2.1,12.1c-1.9,3.2-10.7,12.4-17.8,16
		c-2.1,1.1-10.2,2.7-15.1,1.1c5.9,9.6,22.5,3.1,24.9-0.8c2.8-4.4,10.7-11.7,14.2-14C96.6,249.7,93.1,239.8,86.7,238z"/>
	<path class="st3" d="M129.4,243c-5.7-3.6-11.4-6.9-17.8-5.1c-0.7,0.2,2-0.7,1.4-0.3c2.6,1.1,5.2,2.6,7.7,4.2
		c15.1,9.6,25.4,23.8,10.5,27.8c-0.9,0.2-1.4,1.1-2.3,1.5c5.4,1.4,11.4,1.5,14.4-1.5C148.7,264.3,144.6,252.6,129.4,243z"/>
	<path class="st2" d="M91,184.5c-10.5,19-7.9,57.3-7.9,57.3"/>
	<path class="st3" d="M55.6,193.2c1.1,1.8,8.7,17.5-4.6,20.7c16.7,6.5,9-11.8,11.3-13.2c3.9-2.3,0.3-18.3-11.6-18.3
		C55.5,184.7,58.5,190.8,55.6,193.2z"/>
	<path class="st1" d="M151.5,96l-5.1-1c-4.1-10.7-21.3-21.4-43.2-25.9s-42-1.3-49.9,7L48.1,75c-4.1-0.8-8.1,1.5-8.8,5.2
		c-0.7,3.7,2,7.4,6.1,8.2l5.2,1.1c4.1,10.7,21.3,21.4,43.2,25.9c22,4.5,42,1.3,49.9-7l5.1,1c4.1,0.8,8.1-1.5,8.8-5.2
		C158.4,100.5,155.6,96.9,151.5,96z"/>
	<path class="st7" d="M112.1,106.3c0.8,0.7,0.3,1.4-0.3,1.3c-10.1-5.8-29.6-6-33.4-5.3c-0.7,0-0.8-1,0.2-1.4
		C85.4,98.6,102.5,98.8,112.1,106.3z"/>
	<path class="st8" d="M129.1,95.3l-0.3,1.5c0,0-4.5,0.2-8.3-0.5c-3.8-0.8-5.1-1.2-7.9-2.7c0,0,0.3-1.4,0.3-1.5
		c1.1-4.4,5.1-6.4,9.6-5.5C126.9,87.4,130,90.8,129.1,95.3z"/>
	<path class="st8" d="M85.9,86.5L85.6,88c0,0-4.5,0.2-8.3-0.5c-3.8-0.8-5.1-1.2-7.9-2.7c0,0,0.3-1.4,0.3-1.5
		c1.1-4.4,5.1-6.4,9.6-5.5S86.8,82,85.9,86.5z"/>
	<path class="st7" d="M116,94.6c0.5-2.6,3-4.2,5.6-3.7s4.2,3,3.7,5.6"/>
	<path class="st7" d="M72.8,85.8c0.5-2.6,3-4.2,5.6-3.7s4.2,3,3.7,5.6"/>
	<path class="st3" d="M152.2,96.2l-5.1-1c-4.1-10.7-21.3-21.4-43.2-25.9c-1.9-0.4-3.8-0.7-5.7-1c19.2,5,33.9,14.8,37.6,24.6
		c2.2,5.1,1.3,9.5-2.7,13.4c-7.3,7.6-24.5,10.9-44.2,8c1.8,0.5,3.7,0.9,5.6,1.3c22,4.5,42,1.3,49.9-7l5.1,1c4.1,0.8,8.1-1.5,8.8-5.2
		C159.1,100.7,156.3,97,152.2,96.2z"/>
	<path class="st2" d="M101.4,72.4c3.3-13.6,26.5-5.2,33.2,2.5"/>
	<path class="st3" d="M46.9,88.7c-2.2-5.1-1.3-9.5,2.7-13.4l5.3,1.1c-4,3.8-4.9,8.3-2.7,13.4L46.9,88.7z"/>
	<g class="st4">
		<circle class="st21" cx="140.6" cy="80.6" r="8.3"/>
		<path class="st6" d="M139.7,72.4c-1.2,0-2.4,0.3-3.4,0.8c2.8,1.3,4.9,4.1,4.9,7.4s-1.9,6.2-4.7,7.5c1.1,0.5,2.2,0.8,3.5,0.7
			c4.6-0.1,8.2-3.8,8.2-8.4C148,76,144.3,72.3,139.7,72.4z"/>
	</g>
	<line class="st2" x1="98.7" y1="117.3" x2="98.7" y2="125.6"/>
</g>
<g id="_x36_" class="st0">
	<path class="st2" d="M90.2,188.4c-28.5,5.8-42.6,22.1-42.6,33"/>
	<path class="st2" d="M107.4,187.7c27.3,6.1,47.7,22.7,47,33.8"/>
	<g class="st4">
		<g>
			<path class="st5" d="M130,221.3c-0.2,22.4-10.2,28.5-31.7,28.1s-30.3-5.3-31.1-27.5c-0.8-22.2,8-34.2,30.9-35.1
				C121,185.8,130.2,198.9,130,221.3z"/>
		</g>
		<path class="st6" d="M107.4,186.7c-2.4-1.1-0.9,0.8-3,1c11.4,4.6,14.2,23.2,13.9,31.4c-0.7,19.2-9.2,24.9-26.1,30
			c2.1,0.3,3.7,0.7,6.1,0.7c21.2-0.3,31.9-9,32-31.5C130.4,195.8,118.8,191.7,107.4,186.7z"/>
	</g>
	<g class="st4">
		<path class="st5" d="M29.7,243c5.7-3.6,11.4-6.9,17.8-5.1c6.4,1.9,9.9,11.7,6.4,14s-11.4,9.7-14.2,14c-2.8,4.4-18.5,9-23.9,3.6
			S14.6,252.6,29.7,243z"/>
		<path class="st6" d="M47.8,238c-3.6-1,1.4-1.7-1.8-0.4c4.6,3.5,4.6,7.9,2.1,12.1c-1.9,3.2-10.7,12.4-17.8,16
			c-2.1,1.1-10.2,2.7-15.1,1.1c5.9,9.6,22.5,3.1,24.9-0.8c2.8-4.4,10.7-11.7,14.2-14C57.8,249.7,54.3,239.8,47.8,238z"/>
	</g>
	<g class="st4">
		<path class="st5" d="M175.3,243c-5.7-3.6-11.4-6.9-17.8-5.1c-6.4,1.9-9.9,11.7-6.4,14s11.4,9.7,14.2,14c2.8,4.4,18.5,9,23.9,3.6
			C194.5,264.3,190.4,252.6,175.3,243z"/>
		<path class="st6" d="M175.6,243c-5.7-3.6-11.4-6.9-17.8-5.1c-0.7,0.2,2-0.7,1.4-0.3c2.6,1.1,5.2,2.6,7.7,4.2
			c15.1,9.6,25.4,23.8,10.5,27.8c-0.9,0.2-1.4,1.1-2.3,1.5c5.4,1.4,11.4,1.5,14.4-1.5C194.8,264.3,190.7,252.6,175.6,243z"/>
	</g>
	<path class="st2" d="M90.7,243.1c-37.4-21.3-48-2.7-48-2.7"/>
	<path class="st2" d="M107.8,243.1c47.9-21.6,52.9-2.7,52.9-2.7"/>
	<g class="st4">
		<path class="st5" d="M56.6,237.5c7.8-0.1-2.1-24.3-11.9-19c-7,3.8-5.6,22.3-1.6,29c5.1,8.7,12.2,3.3,13.7-1.2
			C59.2,238.7,52,229,52,229"/>
	</g>
	<g class="st4">
		<path class="st5" d="M142.5,235.8c-7.8-0.3,2.8-24.2,12.4-18.6c6.9,4,5,22.4,0.8,29.1c-5.4,8.5-12.3,3-13.6-1.6
			c-2.2-7.6,5.3-17.2,5.3-17.2"/>
		<path class="st6" d="M155.2,245.9c3.8-6.8,6.1-25-0.8-29.1c-1.9-1.1,1.5,0.9-0.4,1.7c1.5,7.2-0.3,17.5-3.2,22.2
			c-1.3,2.1-4.8,4.8-6.2,5.4c0.1,0.5,0.2,1,0.3,1.5C146.3,252.2,152.1,251.3,155.2,245.9z"/>
	</g>
	<g class="st4">
		<path class="st5" d="M148.3,178.7l-5-1.1c-4-10.8-21-21.7-42.9-26.4s-41.9-1.8-50,6.4l-5.2-1.1c-4.1-0.9-8.1,1.4-8.9,5
			c-0.8,3.7,1.9,7.4,6,8.3l5.2,1.1c4,10.8,21,21.7,42.9,26.4s41.9,1.8,50-6.4l5,1.1c4.1,0.9,8.1-1.4,8.9-5
			C155.1,183.3,152.4,179.6,148.3,178.7z"/>
		<path class="st6" d="M149,178.9l-5-1.1c-4-10.8-21-21.7-42.9-26.4c-1.9-0.4-3.8-0.8-5.7-1.1c19.2,5.3,33.7,15.2,37.3,25.1
			c2.2,5.1,1.2,9.5-2.9,13.3c-7.4,7.5-24.7,10.5-44.3,7.4c1.8,0.5,3.7,1,5.6,1.4c21.9,4.7,41.9,1.8,50-6.4l5,1.1
			c4.1,0.9,8.1-1.4,8.9-5C155.8,183.5,153.1,179.8,149,178.9z"/>
		<path class="st6" d="M43.9,170.1c-2.2-5.1-1.2-9.5,2.9-13.3l5.3,1.1c-4.1,3.8-5,8.2-2.9,13.3L43.9,170.1z"/>
	</g>
	<path class="st2" d="M97.2,161.5c14,0.3,30.3,10.7,29.2,18.2"/>
	<path class="st7" d="M107.1,190.9c0.5,0.6,0.4,1.1-0.2,1c-2.6-1.5-5.9-2.7-9.3-3.6c-4.9-1.2-10-0.4-14.5-0.7s-8.2-1.7-9.6-1.4
		c-0.7-0.1-0.8-0.6,0.2-1.1c2.1-0.7,6,0.9,9.5,0.9c4.5-0.1,8.9-1.5,13.8-0.1C100.8,187,104.3,188.6,107.1,190.9z"/>
	<line class="st22" x1="63.8" y1="169.1" x2="80.9" y2="172.8"/>
	<line class="st22" x1="107.2" y1="178.5" x2="124.4" y2="182.2"/>
	<path class="st7" d="M77.4,172.2c-0.6,2.6-3.1,4.2-5.6,3.6c-2.6-0.6-4.2-3.1-3.6-5.6"/>
	<path class="st7" d="M120.5,181.5c-0.6,2.6-3.1,4.2-5.6,3.6c-2.6-0.6-4.2-3.1-3.6-5.6"/>
	<g class="st4">
		<circle class="st23" cx="126.2" cy="187.9" r="8.3"/>
		<path class="st6" d="M125.6,179.7c-1.2,0-2.4,0.2-3.5,0.7c2.8,1.4,4.7,4.3,4.7,7.6c-0.1,3.3-2.1,6.1-5,7.4c1,0.5,2.2,0.8,3.4,0.8
			c4.6,0.1,8.3-3.5,8.4-8.1C133.8,183.5,130.2,179.8,125.6,179.7z"/>
	</g>
	<path class="st3" d="M50.6,229.7c0.8,1.9,6.7,18.4-4.3,21.9c15.9,0.9,7.4-12.5,9.9-13.5c4.2-1.7,2.8-18.1-9-19.7
		C51.7,221.2,53.8,227.7,50.6,229.7z"/>
</g>
<g id="_x37_" class="st0">
	<path class="st2" d="M92.9,196.3c-28.5,5.8-42.4,34-42.4,44.8"/>
	<path class="st2" d="M108.8,195.4c27.3,6.1,46.5,34.9,46.5,45.8"/>
	<g class="st4">
		<g>
			<path class="st5" d="M130.6,228.8c-0.2,22.4-10.2,28.5-31.7,28.1c-21.7,0.4-30.3-5.3-31.1-27.5c-0.8-22.2,8-34.2,30.9-35.1
				C121.6,193.3,130.8,206.4,130.6,228.8z"/>
		</g>
		<path class="st6" d="M110.3,195.4c-2.4-1.1-0.9,0.8-3,1c11.4,4.6,14.2,23.2,13.9,31.4c-0.7,19.2-9.2,24.9-26.1,30
			c2.1,0.3,3.6-0.1,6.1-0.2c21.2-0.3,29-8.4,29.1-30.8C130.4,204.3,121.7,200.4,110.3,195.4z"/>
	</g>
	<path class="st2" d="M90.7,252.2c-38.5-16.9-53,9.7-53,9.7"/>
	<path class="st2" d="M107.8,251.5c47.9-21.6,55.8,10.3,55.8,10.3"/>
	<g class="st4">
		<path class="st5" d="M25.3,264c4.8,4.7,9.7,9.2,16.4,8.7s8.3-8.7,7.8-10.6c-0.7-3.2-16.6-40.2-32.2-27
			C11.5,239.9,12.5,251.5,25.3,264z"/>
		<path class="st6" d="M43.9,251.9c2.7,6.2,5.1,12.3,2.4,18.4c-0.3,0.6,1-1.9,0.5-1.4c-0.7-2.7-2.2-5.3-3-8.2
			c-4.5-16-13.4-27.8-24.1-26.5l0,0C25.8,229.7,36.7,235.5,43.9,251.9z"/>
	</g>
	<g class="st4">
		<path class="st5" d="M180.6,264c-4.8,4.7-9.7,9.2-16.4,8.7s-8.3-8.7-7.8-10.6c0.7-3.2,16.6-40.2,32.2-27
			C194.4,239.9,193.4,251.5,180.6,264z"/>
		<path class="st6" d="M180.9,263.9c-4.8,4.7-9.7,9.2-16.4,8.7c-0.7,0,0.6-1.1-0.1-1.3c3.8-0.6,6.1-2.3,8.2-4.4
			c12.8-12.5,20.3-25.4,12-33.9c-0.6-0.6,0.9,0.2,0,0c0,0,0.8-0.2,4.3,2C195.3,239.1,193.7,251.4,180.9,263.9z"/>
	</g>
	<g class="st4">
		<path class="st5" d="M151,218l-5-1.2c-3.7-10.9-20.4-22.3-42.2-27.6s-41.9-3-50.1,5l-5.1-1.3c-4.1-1-8.2,1.1-9,4.8
			c-0.9,3.7,1.7,7.4,5.8,8.4l5.1,1.3c3.7,10.9,20.4,22.3,42.2,27.6s41.9,3,50.1-5l5,1.2c4.1,1,8.2-1.1,9-4.8
			C157.7,222.7,155.1,219,151,218z"/>
		<path class="st6" d="M151.7,218.1l-5-1.2c-3.7-10.9-20.4-22.3-42.2-27.6c-1.9-0.5-3.8-0.9-5.7-1.2c19,5.8,33.2,16.1,36.6,26.1
			c2,5.2,0.9,9.6-3.2,13.2c-7.6,7.3-25,9.9-44.5,6.2c1.8,0.6,3.7,1.1,5.6,1.5c21.8,5.3,41.9,3,50.1-5l5,1.2c4.1,1,8.2-1.1,9-4.8
			C158.4,222.9,155.8,219.1,151.7,218.1z"/>
		<path class="st6" d="M46.9,206.5c-2-5.2-0.9-9.6,3.2-13.2l5.2,1.3c-4.2,3.7-5.3,8.1-3.2,13.2L46.9,206.5z"/>
	</g>
	<path class="st2" d="M106.3,225.3c14.9,8.3,18.7,23.5,21.3,31"/>
	<g class="st4">
		<circle class="st24" cx="130.3" cy="264.1" r="8.3"/>
		<path class="st6" d="M129.6,255.4c-1.2,0.1-2.4,0.5-3.4,1.1c2.9,1.1,5.1,3.7,5.4,7s-1.4,6.3-4.2,7.9c1.1,0.4,2.3,0.6,3.5,0.5
			c4.5-0.4,7.9-4.4,7.5-8.9C138.2,258.4,134.2,255,129.6,255.4z"/>
	</g>
	<g class="st4">
		<path class="st5" d="M59,258.9c7.7,0.9,1-24.4-9.4-20.3c-7.5,2.9-8.4,21.4-5.4,28.6c3.9,9.2,11.7,4.9,13.7,0.5
			c3.4-7.2-2.6-17.8-2.6-17.8"/>
		<path class="st6" d="M54.5,249.9c0.6,2,4.3,19.1-7.1,21.2C63.1,274,56.3,259.7,59,259c4.4-1.1,5.1-17.6-6.3-20.7
			C56.7,241.7,58,248.4,54.5,249.9z"/>
	</g>
	<g class="st4">
		<path class="st5" d="M147,259.2c-7.7,1.3-2.2-24.3,8.4-20.8c7.6,2.5,9.5,20.9,6.7,28.3c-3.5,9.4-11.4,5.4-13.7,1.2
			c-3.7-7,1.7-17.9,1.7-17.9"/>
		<path class="st6" d="M161.5,266.4c2.4-7.5,0.9-25.7-6.7-28.3c-2.1-0.7,1.6,0.5,0,1.7c2.9,6.7,3.3,17.2,1.4,22.4
			c-0.9,2.4-3.7,5.7-5,6.6c0.2,0.5,0.4,1,0.6,1.4C154.1,274.5,159.6,272.4,161.5,266.4z"/>
	</g>
</g>
<g id="_x38_" class="st0">
	<path class="st2" d="M155.3,241.1c0.1-6.1-28.8-12.9-56.1-12.6c-25.1,0.3-48.7,7.4-48.7,12.6"/>
	<path class="st2" d="M90.7,252.2c-38.5-16.9-53,9.7-53,9.7"/>
	<path class="st2" d="M107.8,251.5c47.9-21.6,55.8,10.3,55.8,10.3"/>
	<g class="st4">
		<path class="st5" d="M25.3,264c4.8,4.7,9.7,9.2,16.4,8.7s8.3-8.7,7.8-10.6c-0.7-3.2-16.6-40.2-32.2-27
			C11.5,239.9,12.5,251.5,25.3,264z"/>
		<path class="st6" d="M43.9,251.9c2.7,6.2,5.1,12.3,2.4,18.4c-0.3,0.6,1-1.9,0.5-1.4c-0.7-2.7-2.2-5.3-3-8.2
			c-4.5-16-13.4-27.8-24.1-26.5l0,0C25.8,229.7,36.7,235.5,43.9,251.9z"/>
	</g>
	<g class="st4">
		<path class="st5" d="M180.6,264c-4.8,4.7-9.7,9.2-16.4,8.7s-8.3-8.7-7.8-10.6c0.7-3.2,16.6-40.2,32.2-27
			C194.4,239.9,193.4,251.5,180.6,264z"/>
		<path class="st6" d="M180.9,263.9c-4.8,4.7-9.7,9.2-16.4,8.7c-0.7,0,0.6-1.1-0.1-1.3c3.8-0.6,6.1-2.3,8.2-4.4
			c12.8-12.5,20.3-25.4,12-33.9c-0.6-0.6,0.9,0.2,0,0c0,0,0.8-0.2,4.3,2C195.3,239.1,193.7,251.4,180.9,263.9z"/>
	</g>
	<g class="st4">
		<path class="st5" d="M156,244.4l-5.2-0.2c-5.7-10-24.3-17.8-46.8-18.8c-22.4-1-41.6,5.3-48.2,14.7l-5.3-0.2
			c-4.2-0.2-7.8,2.7-7.9,6.5c-0.2,3.8,3.1,7,7.3,7.1l5.3,0.2c5.7,10,24.3,17.8,46.8,18.8c22.4,1,41.6-5.3,48.2-14.7l5.2,0.2
			c4.2,0.2,7.8-2.7,7.9-6.5C163.5,247.8,160.2,244.6,156,244.4z"/>
		<path class="st6" d="M156.7,244.5l-5.2-0.2c-5.7-10-24.3-17.8-46.8-18.8c-2-0.1-3.9-0.1-5.8-0.1c19.8,1.9,35.8,9.3,41,18.4
			c3,4.7,2.8,9.2-0.6,13.6c-6,8.6-22.5,14.6-42.4,14.8c1.9,0.2,3.8,0.3,5.8,0.4c22.4,1,41.6-5.3,48.2-14.7l5.2,0.2
			c4.2,0.2,7.8-2.7,7.9-6.5C164.2,247.8,160.9,244.6,156.7,244.5z"/>
		<path class="st6" d="M51.6,253.6c-3-4.7-2.8-9.2,0.6-13.6l5.4,0.2c-3.4,4.4-3.6,8.9-0.6,13.6L51.6,253.6z"/>
	</g>
	<path class="st2" d="M103.8,264.1c4,8,10.1,8,21.1,6.3"/>
	<g class="st4">
		<circle class="st25" cx="130.3" cy="264.1" r="8.3"/>
		<path class="st6" d="M129.6,255.4c-1.2,0.1-2.4,0.5-3.4,1.1c2.9,1.1,5.1,3.7,5.4,7s-1.4,6.3-4.2,7.9c1.1,0.4,2.3,0.6,3.5,0.5
			c4.5-0.4,7.9-4.4,7.5-8.9C138.2,258.4,134.2,255,129.6,255.4z"/>
	</g>
	<g class="st4">
		<path class="st5" d="M59,258.9c7.7,0.9,1-24.4-9.4-20.3c-7.5,2.9-8.4,21.4-5.4,28.6c3.9,9.2,11.7,4.9,13.7,0.5
			c3.4-7.2-2.6-17.8-2.6-17.8"/>
		<path class="st6" d="M54.5,249.9c0.6,2,4.3,19.1-7.1,21.2C63.1,274,56.3,259.7,59,259c4.4-1.1,5.1-17.6-6.3-20.7
			C56.7,241.7,58,248.4,54.5,249.9z"/>
	</g>
	<g class="st4">
		<path class="st5" d="M147,259.2c-7.7,1.3-2.2-24.3,8.4-20.8c7.6,2.5,9.5,20.9,6.7,28.3c-3.5,9.4-11.4,5.4-13.7,1.2
			c-3.7-7,1.7-17.9,1.7-17.9"/>
		<path class="st6" d="M161.5,266.4c2.4-7.5,0.9-25.7-6.7-28.3c-2.1-0.7,1.6,0.5,0,1.7c2.9,6.7,3.3,17.2,1.4,22.4
			c-0.9,2.4-3.7,5.7-5,6.6c0.2,0.5,0.4,1,0.6,1.4C154.1,274.5,159.6,272.4,161.5,266.4z"/>
	</g>
</g>
<g id="Layer_10" class="st0">
</g>
</svg>
